inDegrees=no
num_controls=7
num_derivatives=13
num_iterations=92
num_multipliers=7
num_parameters=0
num_slacks=7
num_states=26
objective=0.545440
objective_accelerations=0.041525
objective_balance=0.003767
objective_effort=0.040479
objective_height=0.450241
objective_ligament=0.009429
solver_duration=986.956837
status=Solve_Succeeded
success=true
DataType=double
version=3
OpenSimVersion=4.5
endheader
time	/jointset/ground_pelvis/pelvis_tilt/value	/jointset/ground_pelvis/pelvis_tx/value	/jointset/ground_pelvis/pelvis_ty/value	/jointset/hip_r/hip_flexion_r/value	/jointset/hip_r/hip_adduction_r/value	/jointset/hip_r/hip_rotation_r/value	/jointset/back/lumbar_extension/value	/jointset/patellofemoral_r/patellar_flexion_r/value	/jointset/knee_r/knee_flexion_r/value	/jointset/knee_r/knee_adduction_r/value	/jointset/knee_r/knee_rotation_r/value	/jointset/ankle_r/ankle_angle_r/value	/jointset/subtalar_r/subtalar_angle_r/value	/jointset/ground_pelvis/pelvis_tilt/speed	/jointset/ground_pelvis/pelvis_tx/speed	/jointset/ground_pelvis/pelvis_ty/speed	/jointset/hip_r/hip_flexion_r/speed	/jointset/hip_r/hip_adduction_r/speed	/jointset/hip_r/hip_rotation_r/speed	/jointset/back/lumbar_extension/speed	/jointset/patellofemoral_r/patellar_flexion_r/speed	/jointset/knee_r/knee_flexion_r/speed	/jointset/knee_r/knee_adduction_r/speed	/jointset/knee_r/knee_rotation_r/speed	/jointset/ankle_r/ankle_angle_r/speed	/jointset/subtalar_r/subtalar_angle_r/speed	/forceset/tau_hip_flexion_r	/forceset/tau_hip_adduction_r	/forceset/tau_hip_rotation_r	/forceset/tau_knee_flexion_r	/forceset/tau_ankle_angle_r	/forceset/tau_subtalar_angle_r	/forceset/tau_lumbar_extension	lambda_cid13_p0	lambda_cid14_p0	lambda_cid14_p1	lambda_cid14_p2	lambda_cid14_p3	lambda_cid14_p4	lambda_cid14_p5	/jointset/ground_pelvis/pelvis_tilt/accel	/jointset/ground_pelvis/pelvis_tx/accel	/jointset/ground_pelvis/pelvis_ty/accel	/jointset/hip_r/hip_flexion_r/accel	/jointset/hip_r/hip_adduction_r/accel	/jointset/hip_r/hip_rotation_r/accel	/jointset/back/lumbar_extension/accel	/jointset/patellofemoral_r/patellar_flexion_r/accel	/jointset/knee_r/knee_flexion_r/accel	/jointset/knee_r/knee_adduction_r/accel	/jointset/knee_r/knee_rotation_r/accel	/jointset/ankle_r/ankle_angle_r/accel	/jointset/subtalar_r/subtalar_angle_r/accel	gamma_cid13_p0	gamma_cid14_p0	gamma_cid14_p1	gamma_cid14_p2	gamma_cid14_p3	gamma_cid14_p4	gamma_cid14_p5
1	-0.3892100428981238	-0.04246513872312532	0.7050585767768582	1.45090107382397	-0.2309088991336873	-0.06290567496043439	-0.4363060442252031	1.163608999549054	1.163608999550087	-0.0287273057116279	0.1745136744989136	0.290179983963564	0.06220206467082898	-0.0022001891485755	0.002402914349951413	0.01310487904354143	-0.03443949974027804	0.001547114923106017	-0.01021938811742835	-0.000711999920924828	-0.0460133092233195	-0.04601330922331658	0.0003450318351113093	3.806040732685406e-05	-0.01067303615338257	-0.0008909283764012262	-0.3312232674858774	0.01376239583690268	0.01226937318738191	-0.3973188475306797	0.0559630988465805	-0.001285187545623139	0.3254458131633512	-2.874794663754527	-30.58019222793427	-5.309859133171962	0.6181132674876941	13.2025716948839	-782.8344276902409	52.01560568649038	1.670594451129461	0.2087104377145921	1.424986322966684	-5.15322319754805	0.0673060776484629	-0.7070531922336614	-0.03989122664410834	-4.257515505680254	-4.257515505679292	0.3688055392364383	0.007166955874499728	-0.9261884203812448	-0.1734477554792021	7.199251277107888e-10	-1.217639876072456e-09	6.625744956003689e-09	5.421078861648692e-09	3.906692623575942e-09	-4.979379118345229e-09	5.377673886835835e-09
1.01	-0.3891492472609398	-0.04243065573948875	0.7052607975779316	1.450299744710468	-0.2308899910720513	-0.0630426339071191	-0.4363140592922836	1.162935934946183	1.162935934946403	-0.02870499058958639	0.1745140111634952	0.2900268906832301	0.06218455549244956	0.01435832241029945	0.004499723056776142	0.02734463766246832	-0.08584832316633778	0.002235177692172741	-0.01716915315146302	-0.0008622546114289475	-0.08862664071440972	-0.08862664071441249	0.00412819699712466	2.627056512686366e-05	-0.01995082345191816	-0.002611496747333111	-0.3314451225847929	0.01385295893157705	0.01228047377053787	-0.3971981788046461	0.05598286691160276	-0.001329424486965705	0.3257127169734955	-2.900913681654337	-30.587557587329	-5.330816626508907	0.6219750934558179	13.13922103686498	-783.0803935959774	51.97346129254359	1.648330932709112	0.2110730965733659	1.424272389536364	-5.13801160466717	0.06966072316215786	-0.6884513198781412	0.001721242485082397	-4.267296583969967	-4.267296583971441	0.3846045211239865	-0.005799879089411672	-0.9293551492590217	-0.171446429605992	1.039778593253224e-09	-1.233138305728019e-09	1.30881316077542e-08	1.040697493038796e-08	4.530999956324189e-09	-8.541671218256812e-09	1.041969406904609e-08
1.02	-0.3889228962232775	-0.04237502326690261	0.70560557631683	1.449183667424793	-0.2308641815134005	-0.06324899313631638	-0.4363227141396822	1.161835926105772	1.16183592610518	-0.02864453731263272	0.174514140344692	0.2897808632769767	0.06214982362001965	0.03091089094687307	0.006632812139867647	0.04161646660859756	-0.1373891341736941	0.0029274143262899	-0.02409944462108718	-0.0008399559923869011	-0.1314021567313633	-0.1314021567313767	0.007972662816743286	-3.436269958602672e-06	-0.02925986133722552	-0.004335467186497085	-0.3316669776837465	0.01394352202626331	0.01229157435359495	-0.3970775100786168	0.05600263497663373	-0.001373661428287413	0.3259796207836013	-2.943877662432859	-30.60374272601623	-5.350365275303159	0.6222390693337456	13.08928312338242	-783.4657103023886	51.94664877602899	1.669405846669182	0.215966512967959	1.431400388407158	-5.179620713807371	0.06814085065854866	-0.7031584793515583	-0.005380564734602824	-4.289952410852922	-4.289952410852947	0.3810656707574961	0.003583557297406395	-0.9324385377355825	-0.1741281691256167	1.38644544698481e-09	-1.01122164689012e-09	1.959421041778168e-08	1.570710744036839e-08	4.71168301680155e-09	-1.125588463829091e-08	1.525365988538549e-08
1.03	-0.3885310482918192	-0.04229779666510744	0.7060932130315947	1.447551469254401	-0.230831443912089	-0.06352451660363605	-0.4363298576057944	1.160307383244903	1.16030738324419	-0.02854526843433804	0.1745138900208289	0.2894416711317838	0.06209783944248216	0.04745816361575112	0.008826835979373875	0.05591428715112657	-0.1890785500303699	0.003619478599743454	-0.03099817898311508	-0.0005175909934150818	-0.1743306800969335	-0.174330680096959	0.01189727632967738	-4.919681001783581e-05	-0.03857556758054595	-0.006061210986759694	-0.3320354390223047	0.01404656915359226	0.01231120710621636	-0.3966906612666809	0.05597847805810915	-0.001402696859098648	0.3264707893461607	-3.004092141681407	-30.62654307298698	-5.360280251541886	0.6161813309055515	12.95191422544922	-783.8137372589759	51.91254545922048	1.647309092751624	0.2232704621309608	1.42948169951135	-5.167808990342378	0.06964972740171932	-0.6821711435724527	0.06171697062459636	-4.297942346374644	-4.297942346376464	0.4005874165169425	-0.009036332050990501	-0.9306878657569215	-0.1717671655981776	1.733385906718327e-09	-7.868823851084081e-10	2.610073506615892e-08	2.10104464446472e-08	4.887839298990432e-09	-1.396144419424463e-08	2.008550269799152e-08
